<?xml version="1.0" encoding="utf-8"?>
<!-- Generator: Adobe Illustrator 21.0.0, SVG Export Plug-In . SVG Version: 6.00 Build 0)  -->
<svg version="1.1" id="Layer_1" xmlns="http://www.w3.org/2000/svg" xmlns:xlink="http://www.w3.org/1999/xlink" x="0px" y="0px" height="40" width="40"
	 viewBox="0 0 82.9 83" style="enable-background:new 0 0 82.9 83;" xml:space="preserve">
<g>
	<path d="M13.6,0.9c-1.2-1.2-3.1-1.2-4.3,0L0.9,9.3c-1.2,1.2-1.2,3.1,0,4.3l68.5,68.5c0.6,0.6,1.4,0.9,2.1,0.9s1.6-0.3,2.1-0.9
		l8.4-8.4c1.2-1.2,1.2-3.1,0-4.3L13.6,0.9z M71.5,80.1L3,11.5l8.4-8.4h0.1l2.6,2.6l-1.2,1.2c-0.4,0.4-0.4,1,0,1.4
		c0.2,0.2,0.5,0.3,0.7,0.3s0.5-0.1,0.7-0.3l1.2-1.2l3,3l-3.4,3.4c-0.4,0.4-0.4,1,0,1.4c0.2,0.2,0.5,0.3,0.7,0.3s0.5-0.1,0.7-0.3
		l3.4-3.4l3,3l-1.2,1.2c-0.4,0.4-0.4,1,0,1.4c0.2,0.2,0.5,0.3,0.7,0.3s0.5-0.1,0.7-0.3l1.2-1.2l3,3l-3.4,3.4c-0.4,0.4-0.4,1,0,1.4
		c0.2,0.2,0.5,0.3,0.7,0.3s0.5-0.1,0.7-0.3l3.4-3.4l3,3l-1.1,1.2c-0.4,0.4-0.4,1,0,1.4c0.2,0.2,0.5,0.3,0.7,0.3s0.5-0.1,0.7-0.3
		l1.2-1.2l3,3l-3.4,3.4c-0.4,0.4-0.4,1,0,1.4c0.2,0.2,0.5,0.3,0.7,0.3s0.5-0.1,0.7-0.3l3.4-3.4l3,3l-1.2,1.2c-0.4,0.4-0.4,1,0,1.4
		c0.2,0.2,0.5,0.3,0.7,0.3s0.5-0.1,0.7-0.3l1.2-1.2l3,3l-3.4,3.4c-0.4,0.4-0.4,1,0,1.4c0.2,0.2,0.5,0.3,0.7,0.3s0.5-0.1,0.7-0.3
		l3.4-3.4l3,3l-1.2,1.2c-0.4,0.4-0.4,1,0,1.4c0.2,0.2,0.5,0.3,0.7,0.3s0.5-0.1,0.7-0.3l1.2-1.2l3,3l-3.3,3.5c-0.4,0.4-0.4,1,0,1.4
		c0.2,0.2,0.5,0.3,0.7,0.3s0.5-0.1,0.7-0.3l3.4-3.4l3,3L57.1,51c-0.4,0.4-0.4,1,0,1.4c0.2,0.2,0.5,0.3,0.7,0.3s0.5-0.1,0.7-0.3
		l1.2-1.2l3,3l-3.4,3.4c-0.4,0.4-0.4,1,0,1.4c0.2,0.2,0.5,0.3,0.7,0.3s0.5-0.1,0.7-0.3l3.4-3.4l3,3l-1.2,1.2c-0.4,0.4-0.4,1,0,1.4
		c0.2,0.2,0.5,0.3,0.7,0.3s0.5-0.1,0.7-0.3l1.2-1.2l3,3l-3.3,3.5c-0.4,0.4-0.4,1,0,1.4c0.2,0.2,0.5,0.3,0.7,0.3s0.5-0.1,0.7-0.3
		l3.4-3.4l3,3l-1.2,1.2c-0.4,0.4-0.4,1,0,1.4c0.2,0.2,0.5,0.3,0.7,0.3s0.5-0.1,0.7-0.3l1.2-1.2l2.6,2.7L71.5,80.1z"/>
</g>
</svg>
