<?xml version="1.0" encoding="utf-8"?>
<!-- Generator: Adobe Illustrator 21.0.0, SVG Export Plug-In . SVG Version: 6.00 Build 0)  -->
<svg version="1.1" id="Layer_1" xmlns="http://www.w3.org/2000/svg" xmlns:xlink="http://www.w3.org/1999/xlink" x="0px" y="0px" height="40" width="40"
	 viewBox="0 0 85.5 85.6" style="enable-background:new 0 0 85.5 85.6;" xml:space="preserve">
<g>
	<path d="M78.3,48.4c0.1-1.3,0-3.7-1.9-4.8L19.9,9.3c0-0.6-0.1-1.2-0.3-1.7C19,5,17.4,2.8,15.1,1.4C10.4-1.4,4.3,0.1,1.4,4.8
		c-2.8,4.7-1.3,10.9,3.4,13.7c1.5,0.9,3.1,1.3,4.7,1.4l34.1,56.4c1.2,1.9,3.5,2,4.8,1.9l6.6,6.9c0.3,0.3,0.7,0.5,1.1,0.5
		c0.3,0,0.6-0.1,0.9-0.3c0.6-0.5,0.8-1.3,0.4-2L24.5,28.9l4.4-4.4l54.3,32.9c0.2,0.1,0.5,0.2,0.8,0.2c0.5,0,0.9-0.2,1.2-0.6
		c0.5-0.6,0.4-1.5-0.1-2L78.3,48.4z M17.7,17.6l6.4,3.9L21.6,24L17.7,17.6z M4,6.4C5.3,4.2,7.6,3,10,3c1.2,0,2.5,0.3,3.6,1
		c1.6,1,2.7,2.5,3.2,4.3S17,12,16,13.6c-2,3.3-6.3,4.3-9.6,2.4S2,9.7,4,6.4z M48.7,75.1c-0.7,0.2-2.2,0.2-2.5-0.4L12.8,19.5
		c0.7-0.2,1.4-0.5,2.1-0.9L49.1,75C48.9,75.1,48.8,75.1,48.7,75.1z M23.5,27.1l-0.8-1.3l3.2-3.2l1.3,0.8L23.5,27.1z M75.2,48.6
		c0,0.1,0,0.2,0,0.3L18.7,14.7c0.4-0.7,0.6-1.4,0.8-2.1l55.3,33.5C75.4,46.4,75.4,47.8,75.2,48.6z"/>
</g>
</svg>
