<?xml version="1.0" encoding="utf-8"?>
<!-- Generator: Adobe Illustrator 21.0.0, SVG Export Plug-In . SVG Version: 6.00 Build 0)  -->
<svg version="1.1" id="Layer_1" xmlns="http://www.w3.org/2000/svg" xmlns:xlink="http://www.w3.org/1999/xlink" x="0px" y="0px" height="40" width="40"
	 viewBox="0 0 60.6 60.6" style="enable-background:new 0 0 60.6 60.6;" xml:space="preserve">
<g>
	<path d="M48.1,27.1c-4.9-4.9-9.9-0.6-14.8,4.1l-5.6-5.6l1.9-1.9c0.6-0.6,0.6-1.5,0-2.1c-0.5-0.5-1.1-0.5-1.7-0.3L8.5,1.4
		C7.1,0,4.2-1,1.6,1.6S0,7.1,1.4,8.5l19.9,19.4c-0.2,0.6-0.1,1.2,0.3,1.7c0.3,0.3,0.7,0.4,1.1,0.4s0.8-0.1,1.1-0.4l1.9-1.9l5.6,5.6
		c-4.9,4.9-9.2,9.9-4.2,14.9c5.6,5.6,17.5,12.4,25.5,12.4c2.4,0,4.5-0.6,5.9-2c3.6-3.6,1.8-10.5-0.3-15.6
		C55.8,37,51.8,30.8,48.1,27.1z M3.7,3.7c1.2-1.2,2.2-0.6,2.7-0.2l19.4,19.9l-2.4,2.4L3.5,6.4C3.1,5.9,2.5,4.9,3.7,3.7z M56.3,56.4
		c-4.2,4.2-20.4-3.6-27.1-10.3c-2.9-2.9-0.8-5.6,5.2-11.6s8.7-8.1,11.6-5.2c3.4,3.4,7.2,9.3,9.4,14.8C57.8,49.9,58.2,54.5,56.3,56.4
		z"/>
</g>
</svg>
