<?xml version="1.0" encoding="utf-8"?>
<!-- Generator: Adobe Illustrator 21.0.0, SVG Export Plug-In . SVG Version: 6.00 Build 0)  -->
<svg version="1.1" id="Layer_1" xmlns="http://www.w3.org/2000/svg" xmlns:xlink="http://www.w3.org/1999/xlink" x="0px" y="0px" height="40" width="40"
	 viewBox="0 0 60.1 80.1" style="enable-background:new 0 0 60.1 80.1;" xml:space="preserve">
<g>
	<path d="M58,69.4h-4.6L33,2.1C32.6,0.9,31.4,0,30.1,0s-2.5,0.9-2.9,2.2L6.7,69.4H2.1C1,69.4,0,70.3,0,71.5V78
		c0,1.1,0.9,2.1,2.1,2.1H58c1.1,0,2.1-0.9,2.1-2.1v-6.6C60.1,70.3,59.2,69.4,58,69.4z M15.4,51.1h29.4l1,3.2H14.4L15.4,51.1z
		 M18.5,40.9h23.2l2.5,8.2H16L18.5,40.9z M20.1,35.7h20l1,3.2h-22L20.1,35.7z M23.2,25.5H37l2.5,8.2H20.7L23.2,25.5z M24.8,20.2
		h10.6l1,3.2H23.8L24.8,20.2z M30.1,3L30.1,3L30.1,3l4.7,15.2h-9.3L30.1,3z M13.8,56.4h32.6l4,13H9.9L13.8,56.4z M57.1,77.1h-54
		v-4.7h4.7h44.5h4.8V77.1z"/>
</g>
</svg>
