<?xml version="1.0" encoding="utf-8"?>
<!-- Generator: Adobe Illustrator 21.0.0, SVG Export Plug-In . SVG Version: 6.00 Build 0)  -->
<svg version="1.1" id="Layer_1" xmlns="http://www.w3.org/2000/svg" xmlns:xlink="http://www.w3.org/1999/xlink" x="0px" y="0px" height="40" width="40"
	 viewBox="0 0 85 65.7" style="enable-background:new 0 0 85 65.7;" xml:space="preserve">
<g>
	<path d="M83.5,51.7c-0.8,0-1.5,0.7-1.5,1.5v5.1H62.3c2.1-4.7,2.2-12.3,2.2-24.9c0-4.5-0.9-8.8-2.6-12.7l2.9-2.9
		c1.2-1.2,1.2-3.1,0-4.3L52.1,0.9c-1.2-1.2-3.1-1.2-4.3,0l-2.9,2.9C41,2.1,36.7,1.2,32.2,1.2C14.5,1.2,0,15.7,0,33.4
		s14.5,32.3,32.3,32.3c16,0,24.1-0.2,28.1-4.4h23.1c0.8,0,1.5-0.7,1.5-1.5v-6.6C85,52.4,84.3,51.7,83.5,51.7z M50,3l12.6,12.7
		l-2.1,2.2c-2.9-5.3-7.3-9.7-12.7-12.7L50,3z M32.3,62.7C16.2,62.7,3,49.6,3,33.4S16.1,4.1,32.3,4.1s29.2,13.2,29.2,29.3
		c0,14.9,0,22.4-3.4,25.8S47.2,62.7,32.3,62.7z"/>
	<path d="M32.3,13.1C21.1,13.1,12,22.2,12,33.4s9.1,20.3,20.3,20.3s20.3-9,20.3-20.3S43.5,13.1,32.3,13.1z M32.3,50.8
		C22.7,50.8,15,43,15,33.5s7.8-17.3,17.3-17.3s17.3,7.7,17.3,17.2S41.8,50.8,32.3,50.8z"/>
</g>
</svg>
