<?xml version="1.0" encoding="utf-8"?>
<!-- Generator: Adobe Illustrator 21.0.0, SVG Export Plug-In . SVG Version: 6.00 Build 0)  -->
<svg version="1.1" id="Layer_1" xmlns="http://www.w3.org/2000/svg" xmlns:xlink="http://www.w3.org/1999/xlink" x="0px" y="0px" height="40" width="40"
	 viewBox="0 0 42.6 80.4" style="enable-background:new 0 0 42.6 80.4;" xml:space="preserve">
<g>
	<path d="M40.1,0H2.5C1.1,0,0,1.1,0,2.5v33.6c0,2.6,1.4,5,3.7,6.3l4.8,2.7c3.7,2.1,5.9,6,5.8,10.2l-0.4,18.8c0,2.2,1.5,6.3,7.4,6.3
		s7.4-4.1,7.4-6.4l-0.4-18.6c-0.1-4.2,2.2-8.2,5.8-10.2l4.8-2.7c2.3-1.3,3.7-3.7,3.7-6.3V2.5C42.6,1.1,41.5,0,40.1,0z M3,3h8.2v17.7
		c0,0.8,0.7,1.5,1.5,1.5s1.5-0.7,1.5-1.5V3h2.5v10.6c0,0.8,0.7,1.5,1.5,1.5s1.5-0.7,1.5-1.5V3h20v31.6H3V3z M37.5,39.8L37.5,39.8
		l-4.8,2.7c-4.6,2.6-7.5,7.6-7.3,12.9l0.4,18.7c0,0.6-0.3,3.3-4.4,3.3S17,74.6,17,74.1l0.3-18.7c0.1-5.3-2.7-10.3-7.3-12.9l-4.8-2.7
		c-0.9-0.5-1.5-1.3-1.9-2.2h36C39,38.5,38.3,39.3,37.5,39.8z"/>
	<path d="M21.3,76.5c2,0,3.6-1.6,3.6-3.6s-1.6-3.6-3.6-3.6s-3.6,1.6-3.6,3.6S19.3,76.5,21.3,76.5z M21.3,71.3c0.9,0,1.6,0.7,1.6,1.6
		s-0.7,1.6-1.6,1.6s-1.6-0.7-1.6-1.6S20.4,71.3,21.3,71.3z"/>
</g>
</svg>
